<svg width="110" height="17" viewBox="0 0 110 17" fill="none" xmlns="http://www.w3.org/2000/svg">
<path d="M101.64 16.7179V3.19781H96.5664V0.258667H110V3.19781H104.95V16.7179H101.64Z" fill="#0B0B0B"/>
<path d="M92.0469 16.7179V0.258667H95.3569V16.7179H92.0469Z" fill="#0B0B0B"/>
<path d="M82.6191 11.0513V8.39429H89.8673V11.0513H82.6191Z" fill="#0B0B0B"/>
<path d="M72.8323 17C71.125 17 69.6109 16.6395 68.2901 15.9184C66.9855 15.1816 65.9627 14.1784 65.2217 12.9087C64.4808 11.6233 64.1104 10.1577 64.1104 8.51176C64.1104 6.83449 64.4808 5.361 65.2217 4.09129C65.9627 2.8059 66.9774 1.80267 68.266 1.0816C69.5706 0.360534 71.0686 0 72.7598 0C74.4672 0 75.9651 0.368373 77.2537 1.10512C78.5583 1.82619 79.5811 2.82941 80.3221 4.1148C81.063 5.38451 81.4335 6.85016 81.4335 8.51176C81.4335 10.1577 81.063 11.6233 80.3221 12.9087C79.5973 14.1784 78.5825 15.1816 77.2778 15.9184C75.9893 16.6395 74.5074 17 72.8323 17ZM72.8323 14.0609C73.8632 14.0609 74.7651 13.8257 75.5383 13.3555C76.3275 12.8695 76.9396 12.2112 77.3745 11.3804C77.8255 10.5496 78.051 9.59336 78.051 8.51176C78.051 7.41448 77.8255 6.45044 77.3745 5.61964C76.9235 4.78884 76.3034 4.13831 75.5141 3.66805C74.7249 3.18211 73.8068 2.93914 72.7598 2.93914C71.7451 2.93914 70.835 3.18211 70.0297 3.66805C69.2404 4.13831 68.6203 4.78884 68.1693 5.61964C67.7183 6.45044 67.4928 7.41448 67.4928 8.51176C67.4928 9.59336 67.7183 10.5496 68.1693 11.3804C68.6203 12.2112 69.2485 12.8695 70.0538 13.3555C70.8592 13.8257 71.7853 14.0609 72.8323 14.0609Z" fill="#0B0B0B"/>
<path d="M51.8389 16.7179V0.258667H62.542V3.19781H55.1489V6.9364H61.5272V9.805H55.1489V13.7787H62.6386V16.7179H51.8389Z" fill="#0B0B0B"/>
<path d="M44.7003 9.92257L41.5836 9.14663L47.0197 0.258667H50.7887L44.7003 9.92257ZM41.4869 16.7179V8.81745H44.7969V16.7179H41.4869ZM41.5836 9.92257L35.4951 0.258667H39.2642L44.7003 9.14663L41.5836 9.92257Z" fill="#0B0B0B"/>
<path d="M27.4807 17C25.7734 17 24.2593 16.6395 22.9386 15.9184C21.6339 15.1816 20.6111 14.1784 19.8702 12.9087C19.1293 11.6233 18.7588 10.1577 18.7588 8.51176C18.7588 6.83449 19.1293 5.361 19.8702 4.09129C20.6111 2.8059 21.6258 1.80267 22.9144 1.0816C24.2191 0.360534 25.717 0 27.4083 0C29.1156 0 30.6136 0.368373 31.9021 1.10512C33.2068 1.82619 34.2296 2.82941 34.9705 4.1148C35.7114 5.38451 36.0819 6.85016 36.0819 8.51176C36.0819 10.1577 35.7114 11.6233 34.9705 12.9087C34.2457 14.1784 33.2309 15.1816 31.9263 15.9184C30.6377 16.6395 29.1559 17 27.4807 17ZM27.4807 14.0609C28.5116 14.0609 29.4136 13.8257 30.1867 13.3555C30.976 12.8695 31.588 12.2112 32.0229 11.3804C32.4739 10.5496 32.6994 9.59336 32.6994 8.51176C32.6994 7.41448 32.4739 6.45044 32.0229 5.61964C31.5719 4.78884 30.9518 4.13831 30.1626 3.66805C29.3733 3.18211 28.4552 2.93914 27.4083 2.93914C26.3935 2.93914 25.4835 3.18211 24.6781 3.66805C23.8889 4.13831 23.2688 4.78884 22.8178 5.61964C22.3668 6.45044 22.1413 7.41448 22.1413 8.51176C22.1413 9.59336 22.3668 10.5496 22.8178 11.3804C23.2688 12.2112 23.8969 12.8695 24.7023 13.3555C25.5076 13.8257 26.4338 14.0609 27.4807 14.0609Z" fill="#0B0B0B"/>
<path d="M0 16.7179V0.258667H3.59992L8.52867 7.35963L13.4574 0.258667H17.0332V16.7179H13.7473V5.29048L8.52867 12.7677L3.30999 5.31399V16.7179H0Z" fill="#0B0B0B"/>
</svg>
