<svg width="1440" height="400" viewBox="0 0 1440 400" fill="none" xmlns="http://www.w3.org/2000/svg">

<g clip-path="url(#clip0_2314_14806)">

<path d="M1440 0H0V400H1440V0Z" fill="#2F2F2F"/>

<path d="M881.3 254.727H820.923V307.916H881.3V254.727Z" fill="#8F77FF"/>

<path d="M1339.33 179.725H1364.38C1380.25 179.725 1393.13 192.597 1393.13 208.476V316.58C1393.13 332.458 1380.25 345.331 1364.38 345.331H1339.33V179.725Z" fill="#8F77FF"/>

<path d="M872.135 202.269L851.045 297.667C849.666 303.905 844.136 308.347 837.747 308.347C830.225 308.347 824.128 302.249 824.128 294.727V275.025C824.128 264.458 832.694 255.892 843.261 255.892H857.2C857.864 255.892 858.441 255.437 858.597 254.791C858.815 253.887 858.13 253.017 857.2 253.017H823.236C807.668 253.017 795.047 265.638 795.047 281.206V315.524C795.047 331.402 807.919 344.275 823.798 344.275H1332.4C1348.28 344.275 1361.15 331.402 1361.15 315.524V263.251C1361.15 258.79 1364.77 255.173 1369.23 255.173C1373.69 255.173 1377.3 251.556 1377.3 247.095V208.475C1377.3 192.596 1364.43 179.724 1348.55 179.724H900.208C886.721 179.724 875.046 189.099 872.135 202.269Z" fill="#FBF8FF"/>

<path d="M1316.13 305.497H825.637C819.811 305.497 815.089 310.22 815.089 316.045V316.045C815.089 321.871 819.811 326.593 825.637 326.593H1316.13C1321.95 326.593 1326.67 321.871 1326.67 316.045C1326.67 310.22 1321.95 305.497 1316.13 305.497Z" fill="#E4D2FF"/>

<path d="M1329.31 326.593H820.89C820.016 326.593 819.308 327.301 819.308 328.175C819.308 329.049 820.016 329.757 820.89 329.757H1329.31C1330.18 329.757 1330.89 329.049 1330.89 328.175C1330.89 327.301 1330.18 326.593 1329.31 326.593Z" fill="#B3A3FF"/>

<path d="M1354.74 384.358L1339.33 345.329H1368.87V384.358H1354.74Z" fill="#8F77FF"/>

<path d="M1307.82 384.358L1291.86 345.329H1322.45V384.358H1307.82Z" fill="#BBADFF"/>

<path d="M885.614 384.107L868.363 345.293H901.427V384.107H885.614Z" fill="#BBADFF"/>

<path d="M933.601 384.107L916.351 345.293H949.414V384.107H933.601Z" fill="#8F77FF"/>

<path d="M525.416 312.353C515.712 275.646 556.885 261.546 578.684 259.085C613.493 266.996 735.324 293.894 749.037 313.935C762.75 333.977 764.773 362.266 735.324 379.334C708.025 395.156 624.695 390.409 599.907 384.608C576.195 379.058 537.546 358.238 525.416 312.353Z" fill="#F6F0FF"/>

<path d="M569.849 304.442C550.51 281.098 562.462 262.25 580.393 259.085L741.783 291.784C746.881 298.465 758.102 334.359 712.244 339.778C654.23 346.635 600.434 341.361 569.849 304.442Z" fill="#E4D2FF"/>

<path d="M621.116 333.328C612.256 332.906 602.305 319.44 598.438 312.759C603.923 315.291 612.678 312.056 616.369 310.122L621.116 333.328Z" fill="#FFF2B0" stroke="#FFFAD7" stroke-width="1.05481"/>

<path d="M731.634 314.45C722.854 315.712 710.535 304.372 705.473 298.545C711.338 299.992 719.323 295.159 722.582 292.561L731.634 314.45Z" fill="#FFFAD7" stroke="#FFFAD7" stroke-width="1.05481"/>

<path d="M565.626 171.535C597.16 217.225 578.923 242.837 578.923 285.556C572.066 309.817 614.259 328.82 678.603 312.981C746.638 296.234 750.857 232.815 735.562 205.389C710.773 147.903 641.873 160.593 633.661 162.042C624.694 163.625 629.441 164.984 622.057 151.494C606.396 122.881 539.782 134.09 565.626 171.535Z" fill="#8B79FF"/>

<path d="M726.509 314.824C738.814 320.241 754.308 312.098 761.115 296.636C767.922 281.174 763.465 264.248 751.159 258.831C738.854 253.413 723.36 261.556 716.553 277.018C709.746 292.48 714.203 309.406 726.509 314.824Z" fill="#FFF2B0"/>

<path d="M626.393 334.747C640.589 336.222 653.513 323.795 655.258 306.991C657.004 290.188 646.911 275.37 632.715 273.895C618.519 272.42 605.595 284.847 603.849 301.65C602.104 318.454 612.197 333.272 626.393 334.747Z" fill="#FFF2B0"/>

<path d="M674.16 267.875C673.942 266.588 674.934 265.414 676.24 265.414H729.316C730.603 265.414 731.59 266.557 731.403 267.831L721.475 335.339C721.323 336.374 720.435 337.141 719.388 337.141H687.657C686.627 337.141 685.748 336.398 685.577 335.383L674.16 267.875Z" fill="#F5F5F5"/>

<path d="M684.292 297.058H722.265L716.991 332.922H689.566L684.292 297.058Z" fill="#554B46"/>

<path d="M719.101 293.894H687.456C685.709 293.894 684.292 295.31 684.292 297.058C684.292 298.806 685.709 300.222 687.456 300.222H719.101C720.849 300.222 722.265 298.806 722.265 297.058C722.265 295.31 720.849 293.894 719.101 293.894Z" fill="#FFECC9"/>

<path d="M710.137 291.784H689.006C687.146 291.784 685.506 290.566 684.967 288.786L680.662 274.546C679.843 271.837 681.871 269.106 684.701 269.106H717.091C720.21 269.106 722.252 272.372 720.883 275.175L713.928 289.418C713.22 290.866 711.749 291.784 710.137 291.784Z" fill="#8B79FF"/>

<path d="M720.864 291.784H716.165C715.357 291.784 714.849 290.912 715.248 290.209L722.295 277.792C722.884 276.756 724.471 277.338 724.249 278.509L721.9 290.926C721.806 291.424 721.371 291.784 720.864 291.784Z" fill="#FFF2B0"/>

<path d="M694.746 238.568C695.009 238.048 695.643 237.84 696.163 238.102L711.595 245.895C711.748 245.973 711.873 246.084 711.969 246.214C712.332 246.383 712.583 246.752 712.579 247.179L712.408 265.111L706.08 265.05L706.22 250.271L693.309 243.752C692.79 243.489 692.581 242.855 692.844 242.335L694.746 238.568Z" fill="white"/>

<path d="M712.951 270.747L712.713 295.851C710.375 297.278 708.999 297.556 706.384 295.79L706.622 270.688L712.951 270.747Z" fill="white"/>

<path d="M694.84 239.571L710.662 248.01V264.887" stroke="#E93039" stroke-width="1.05481"/>

<path d="M711.189 271.215V296.004" stroke="#E93039" stroke-width="1.05481"/>

<path d="M658.449 223.222C661.07 223.222 663.195 221.097 663.195 218.475C663.195 215.854 661.07 213.729 658.449 213.729C655.827 213.729 653.702 215.854 653.702 218.475C653.702 221.097 655.827 223.222 658.449 223.222Z" fill="#1C125C"/>

<path d="M683.237 231.661C684.985 231.661 686.402 230.952 686.402 230.078C686.402 229.204 684.985 228.496 683.237 228.496C681.49 228.496 680.073 229.204 680.073 230.078C680.073 230.952 681.49 231.661 683.237 231.661Z" fill="#1C125C"/>

<path d="M696.422 219.003C699.043 219.003 701.169 216.878 701.169 214.256C701.169 211.635 699.043 209.51 696.422 209.51C693.8 209.51 691.675 211.635 691.675 214.256C691.675 216.878 693.8 219.003 696.422 219.003Z" fill="#1C125C"/>

<path d="M673.015 242.392C674.843 246.438 680.924 250.387 686.936 243.286" stroke="#1C125C" stroke-width="5.49336" stroke-linecap="round"/>

<path d="M1068.22 197.208L1097.48 262.779L1043.29 243.27L990.729 164.152C995.931 167.62 1044.74 189.079 1068.22 197.208Z" fill="#B2A2FF"/>

<path d="M1053.59 196.666L1092.61 258.985C1078.73 265.054 1055.76 260.43 1046 257.359L990.187 190.163C997.557 193.631 1035.53 195.944 1053.59 196.666Z" fill="#E2CEFF"/>

<path d="M1060.09 251.399C1057.49 267.439 1072.38 290.596 1080.14 300.17C1115.91 314.802 1135.42 309.382 1151.13 298.002C1166.85 286.622 1187.44 241.644 1182.02 216.717C1177.69 196.775 1162.15 202.266 1154.93 207.504C1146.69 187.996 1131.99 195.763 1125.66 202.085C1127.29 187.454 1112.12 185.286 1101.82 192.331C1093.58 197.967 1085.02 217.8 1081.77 227.013L1094.77 257.359C1094.34 260.394 1090.98 260.069 1089.36 259.527C1085.02 243.27 1063.34 231.348 1060.09 251.399Z" fill="#FE8EFF"/>

<path d="M1066.51 306.252C1074.38 314.874 1086.14 316.956 1092.77 310.903C1099.4 304.851 1098.4 292.955 1090.53 284.334C1082.66 275.713 1070.9 273.63 1064.27 279.683C1057.64 285.735 1058.64 297.631 1066.51 306.252Z" fill="#FFF2B0"/>

<path d="M1119.43 288.549C1116.29 299.789 1120.75 310.863 1129.39 313.283C1138.04 315.703 1147.6 308.553 1150.75 297.313C1153.89 286.073 1149.43 274.999 1140.79 272.579C1132.14 270.159 1122.58 277.309 1119.43 288.549Z" fill="#FFF2B0"/>

<path d="M1098.57 233.92C1103.81 233.017 1111.47 232.816 1113.2 242.354" stroke="#D800C2" stroke-width="4.33524" stroke-linecap="round"/>

<path d="M1147.91 246.5C1144.12 242.779 1137.93 238.261 1131.08 245.123" stroke="#D800C2" stroke-width="4.33524" stroke-linecap="round"/>

<path d="M1118.06 251.202C1119.84 251.405 1121.37 250.846 1121.47 249.954C1121.57 249.062 1120.21 248.174 1118.42 247.971C1116.64 247.769 1115.11 248.328 1115.01 249.22C1114.91 250.112 1116.27 250.999 1118.06 251.202Z" fill="#DD12CA"/>

<path d="M1127.23 256.406C1122.93 256.728 1116.57 257.542 1112.33 257.608C1111.51 257.621 1110.7 258.038 1110.55 258.837C1110.24 260.516 1110.98 263.215 1116.65 266.917C1122.94 271.026 1127.22 264.404 1129.19 258.925C1129.67 257.599 1128.64 256.301 1127.23 256.406Z" fill="#D800C2" stroke="#D800C2" stroke-width="4.33524" stroke-linecap="round"/>

<path d="M1323.51 260.667V303.387C1323.51 304.844 1322.33 306.024 1320.87 306.024H1288.05C1284.92 306.024 1282.37 303.48 1282.37 300.342V220.992C1282.37 217.854 1284.92 215.31 1288.05 215.31H1338.4C1341.53 215.31 1344.08 217.854 1344.08 220.992V245.577C1344.08 248.233 1342.24 250.53 1339.69 251.287C1335.12 252.647 1330.26 254.445 1327.73 255.393C1324.35 256.659 1323.51 259.437 1323.51 260.667Z" fill="#E4D2FF"/>

<path d="M1207.27 220.318C1200.46 284.061 1220.96 295.692 1226.51 298.206C1250.24 308.95 1330.81 316.559 1330.36 257.92C1330.02 212.387 1282.67 203.373 1252.07 201.246C1250.4 201.129 1248.79 201.975 1248 203.459C1245.17 208.747 1244.18 212.812 1244.42 220.318C1210.8 193.908 1208.08 212.708 1207.27 220.318Z" fill="#00B2FF"/>

<path d="M1244.4 260.14C1248.19 260.14 1251.26 257.071 1251.26 253.284C1251.26 249.497 1248.19 246.428 1244.4 246.428C1240.61 246.428 1237.54 249.497 1237.54 253.284C1237.54 257.071 1240.61 260.14 1244.4 260.14Z" fill="#003850"/>

<path d="M1238.6 246.427C1240.71 246.427 1246.61 246.427 1253.36 246.427" stroke="#003850" stroke-width="7.3837" stroke-linecap="round"/>

<path d="M1220.81 308.78C1228.47 317.17 1239.91 319.197 1246.37 313.306C1252.82 307.415 1251.84 295.838 1244.19 287.447C1236.53 279.057 1225.09 277.03 1218.63 282.921C1212.18 288.812 1213.16 300.389 1220.81 308.78Z" fill="#FFF2B0"/>

<path d="M1181.19 299.205L1167.76 249.102C1167.05 246.422 1169.07 243.79 1171.84 243.79H1241.3C1243.14 243.79 1244.77 244.986 1245.33 246.743L1258.24 287.776C1258.79 289.534 1260.42 290.73 1262.26 290.73H1277.62C1279.95 290.73 1281.84 292.619 1281.84 294.949V298.113C1281.84 300.443 1279.95 302.332 1277.62 302.332H1185.27C1183.36 302.332 1181.68 301.05 1181.19 299.205Z" fill="#E3DFFF"/>

<path d="M1276.04 292.839H1261.8" stroke="#8B79FF" stroke-width="2.10963" stroke-linecap="round"/>

<path d="M1272.33 291.551C1269.27 302.49 1273.61 313.268 1282.03 315.623C1290.44 317.978 1299.74 311.019 1302.81 300.08C1305.87 289.141 1301.53 278.363 1293.11 276.008C1284.7 273.652 1275.4 280.611 1272.33 291.551Z" fill="#FFF2B0"/>

<path d="M1282.37 260.14C1286.16 260.14 1289.23 257.071 1289.23 253.284C1289.23 249.497 1286.16 246.428 1282.37 246.428C1278.58 246.428 1275.51 249.497 1275.51 253.284C1275.51 257.071 1278.58 260.14 1282.37 260.14Z" fill="#003850"/>

<path d="M1270.24 275.963C1271.99 275.963 1273.4 274.546 1273.4 272.798C1273.4 271.051 1271.99 269.634 1270.24 269.634C1268.49 269.634 1267.08 271.051 1267.08 272.798C1267.08 274.546 1268.49 275.963 1270.24 275.963Z" fill="#003850"/>

<path d="M1277.62 246.427C1279.73 246.427 1285.64 246.427 1292.39 246.427" stroke="#003850" stroke-width="7.3837" stroke-linecap="round"/>

<path d="M1263.91 266.468C1265.66 266.468 1267.07 265.524 1267.07 264.359C1267.07 263.194 1265.66 262.249 1263.91 262.249C1262.16 262.249 1260.75 263.194 1260.75 264.359C1260.75 265.524 1262.16 266.468 1263.91 266.468Z" fill="#003850"/>

<path d="M869.411 260.14C881.647 269.422 882.597 301.805 904.747 310.771H926.899C913.538 286.686 882.913 232.715 875.74 236.934C866.774 242.208 854.117 248.537 869.411 260.14Z" fill="#E4D2FF"/>

<path d="M870.51 255.762C887.6 264.76 885.793 304.063 918.679 305.783C957.437 307.81 1006.81 298.245 1000.51 246.029C994.765 198.401 957.802 202.647 934.014 212.564C930.737 213.93 926.921 212.038 926.298 208.543L919.081 168.063C915.747 149.363 881.466 150.096 885.368 171.982C890.106 198.561 894.62 216.847 893.307 231.599C876.413 215.254 849.148 244.515 870.51 255.762Z" fill="#F7F669"/>

<path d="M950.843 256.357C951.618 256.219 952.334 256.309 952.858 256.538C953.387 256.769 953.666 257.109 953.728 257.456C953.79 257.803 953.646 258.219 953.229 258.618C952.816 259.015 952.175 259.346 951.401 259.484C950.626 259.622 949.91 259.533 949.385 259.303C948.857 259.073 948.578 258.732 948.516 258.385C948.455 258.038 948.598 257.622 949.015 257.223C949.428 256.827 950.068 256.496 950.843 256.357Z" fill="#4E4E00" stroke="#4E4E00" stroke-width="1.05869"/>

<path d="M932.927 255.272C935.517 254.81 937.243 252.336 936.781 249.745C936.319 247.155 933.845 245.43 931.255 245.891C928.664 246.353 926.939 248.827 927.401 251.418C927.862 254.008 930.337 255.734 932.927 255.272Z" fill="#4E4E00" stroke="#4E4E00" stroke-width="1.05869"/>

<path d="M961.496 248.376C964.087 247.914 965.812 245.44 965.35 242.85C964.889 240.26 962.414 238.534 959.824 238.996C957.234 239.458 955.508 241.932 955.97 244.522C956.432 247.113 958.906 248.838 961.496 248.376Z" fill="#4E4E00" stroke="#4E4E00" stroke-width="1.05869"/>

<path d="M940.734 262.701L945.331 262.355C946.113 262.296 946.89 262.515 947.526 262.974L951.825 266.08" stroke="#4E4E00" stroke-width="3.32125" stroke-linecap="round"/>

<path d="M923.657 238.738L931.905 240.935" stroke="#4E4E00" stroke-width="5.29345" stroke-linecap="round"/>

<path d="M984.008 288.773C979.847 299.343 983.066 310.507 991.197 313.707C999.328 316.908 1009.29 310.934 1013.45 300.363C1017.61 289.793 1014.4 278.629 1006.26 275.428C998.134 272.228 988.169 278.202 984.008 288.773Z" fill="#FFF2B0"/>

<path d="M900.439 249.258C898.89 248.447 896.978 249.045 896.168 250.594C895.357 252.142 895.955 254.054 897.504 254.865L949.838 282.258C951.386 283.069 953.298 282.47 954.109 280.922C954.919 279.374 954.321 277.461 952.773 276.651L900.439 249.258Z" fill="#525062"/>

<path d="M929.224 265.242L927.267 268.981C926.457 270.529 927.055 272.441 928.603 273.252L940.955 279.717C942.504 280.528 944.416 279.929 945.226 278.381L947.183 274.643C947.994 273.094 947.395 271.182 945.847 270.372L933.495 263.906C931.947 263.096 930.034 263.694 929.224 265.242Z" fill="#525062"/>

<path d="M966.731 250.667L946.721 291.577C944.875 295.352 947.623 299.755 951.825 299.755H1017.94C1019.92 299.755 1021.76 298.721 1022.79 297.028L1047.69 256.118C1050 252.332 1047.27 247.482 1042.84 247.482H971.835C969.665 247.482 967.685 248.718 966.731 250.667Z" fill="#B2A2FF"/>

<path d="M923.883 294.047C919.722 304.617 922.941 315.781 931.072 318.982C939.203 322.182 949.168 316.208 953.328 305.638C957.489 295.067 954.271 283.903 946.14 280.703C938.009 277.502 928.044 283.477 923.883 294.047Z" fill="#FFF2B0"/>

<path d="M699.059 323.429H691.675V329.758H699.059V323.429Z" fill="#9E8C84"/>

<path d="M705.283 319.222L698.618 316.045L695.895 321.758L702.56 324.935L705.283 319.222Z" fill="#9E8C84"/>

<path d="M715.402 324.484L708.177 322.962L706.872 329.155L714.098 330.677L715.402 324.484Z" fill="#9E8C84"/>

<path d="M1323.51 266.251V290.993C1323.51 298.421 1329.53 304.442 1336.96 304.442C1344.39 304.442 1350.41 298.421 1350.41 290.993V266.251C1350.41 257.681 1342.5 251.297 1334.12 253.104C1327.93 254.44 1323.51 259.916 1323.51 266.251Z" fill="#FBF8FF"/>

<path d="M486.668 302.037L486.992 301.259L489.999 312.292L487.744 312.907L484.539 301.15L486.668 302.037ZM479.38 305.265L475.111 309.576L473.453 307.937L477.712 303.636L479.38 305.265ZM499.791 300.757L499.194 303.011L487.542 299.938L488.446 297.765L499.791 300.757ZM483.774 300.831L481.299 303.328L479.63 301.699L481.45 299.863L483.774 300.831ZM482.655 296.246L481.751 298.418L470.015 295.324L470.612 293.07L482.655 296.246ZM492.495 292.037L488.285 296.286L485.962 295.319L490.827 290.408L492.495 292.037ZM485.297 295.042L483.474 294.283L482.986 295.453L479.806 283.789L482.062 283.174L485.297 295.042ZM496.353 288.144L494.415 290.1L492.746 288.471L494.694 286.505L496.353 288.144Z" fill="white"/>

<path d="M1394.86 158.582L1395.19 157.805L1398.19 168.838L1395.94 169.452L1392.73 157.695L1394.86 158.582ZM1387.57 161.811L1383.31 166.121L1381.65 164.482L1385.91 160.181L1387.57 161.811ZM1407.99 157.303L1407.39 159.557L1395.74 156.484L1396.64 154.311L1407.99 157.303ZM1391.97 157.376L1389.49 159.873L1387.83 158.244L1389.64 156.408L1391.97 157.376ZM1390.85 152.791L1389.95 154.964L1378.21 151.869L1378.81 149.615L1390.85 152.791ZM1400.69 148.582L1396.48 152.831L1394.16 151.864L1399.02 146.953L1400.69 148.582ZM1393.49 151.587L1391.67 150.828L1391.18 151.998L1388 140.334L1390.26 139.719L1393.49 151.587ZM1404.55 144.69L1402.61 146.645L1400.94 145.016L1402.89 143.05L1404.55 144.69Z" fill="white"/>

<path d="M847.59 154.785C843.154 149.988 837.821 145.66 831.357 143.294C824.893 140.928 817.154 140.754 811.122 143.898C806.583 146.264 803.289 150.432 802.328 155.025C801.367 159.618 802.755 164.557 806.035 168.211C808.661 171.136 812.753 173.285 816.944 172.889C821.135 172.492 824.939 168.918 824.193 165.236C823.787 163.24 822.237 161.595 820.676 160.113C818.494 158.041 816.145 156.056 813.363 154.662C809.789 152.865 805.669 152.119 801.592 151.683C797.961 151.294 794.219 151.139 790.704 152.035C784.698 153.566 780.003 158.164 778.116 163.45C776.836 167.042 776.769 171.047 778.45 174.509C780.131 177.971 783.688 180.776 787.874 181.406C788.724 181.534 789.625 181.57 790.425 181.293C791.187 181.03 791.8 180.506 792.302 179.933C795.558 176.221 794.322 170.437 790.577 167.108C786.832 163.778 781.26 162.548 775.957 162.533C768.924 162.531 762.051 164.391 756.216 167.876" stroke="white" stroke-width="1.63168" stroke-linecap="round" stroke-linejoin="round" stroke-dasharray="18.5 18.5"/>

<path d="M221.742 182.203V207.984H217.406V195.055H211.156V191.539H217.406V182.203H221.742ZM222.641 213.258V216.773H198.578V205.719H202.914V213.258H222.641ZM205.141 189.234C205.141 193.492 207.992 197.867 213.461 199.664L211.273 203.141C207.328 201.793 204.535 199.117 202.992 195.758C201.43 199.488 198.48 202.438 194.32 203.883L192.094 200.367C197.719 198.531 200.727 193.883 200.727 189.195V188.258H193.383V184.742H212.445V188.258H205.141V189.234ZM237.523 192.945C237.523 198.414 239.789 203.922 244.711 206.578L242.289 209.781C239.008 208.043 236.781 204.938 235.531 201.227C234.281 205.23 232.055 208.648 228.734 210.602L226.195 207.32C231.195 204.43 233.422 198.531 233.422 192.945V191.852H227.406V188.336H233.422V183.414H237.523V188.336H243.422V191.852H237.523V192.945ZM257.133 182.164V217.477H252.992V182.164H257.133ZM249.945 182.828V215.758H245.844V199.312H241.234V195.719H245.844V182.828H249.945Z" fill="white"/>

</g>

<defs>

<clipPath id="clip0_2314_14806">

<rect width="1440" height="400" fill="white"/>

</clipPath>

</defs>

</svg>


