<svg width="20" height="20" viewBox="0 0 20 20" fill="none" xmlns="http://www.w3.org/2000/svg">
<path d="M16.75 14.252H3C3.41667 13.2797 5.08333 10.9186 5.08333 7.58529C5.08333 3.41862 7.58333 1.75195 10.0833 1.75195C12.5833 1.75195 15.0833 4.25195 15.0833 7.16862C15.0833 9.50195 16.1944 12.8631 16.75 14.252Z" fill="#6E58FE"/>
<path d="M10.7926 17.1257C11.0005 16.7674 11.4597 16.6452 11.818 16.853C12.1761 17.0608 12.2982 17.5194 12.0907 17.8776C11.8782 18.2438 11.5729 18.5485 11.206 18.7598C10.8392 18.971 10.4233 19.082 10 19.082C9.57671 19.082 9.16076 18.971 8.79394 18.7598C8.42707 18.5485 8.12177 18.2438 7.90934 17.8776C7.70181 17.5194 7.82386 17.0608 8.18196 16.853C8.54026 16.6452 8.99951 16.7674 9.20735 17.1257C9.28792 17.2644 9.40362 17.3792 9.54264 17.4593C9.6818 17.5395 9.8394 17.5822 10 17.5822C10.1606 17.5822 10.3182 17.5395 10.4574 17.4593C10.5964 17.3792 10.7121 17.2644 10.7926 17.1257ZM14.2497 6.66829C14.2497 5.54112 13.8024 4.45995 13.0054 3.66292C12.2083 2.86589 11.1272 2.41862 10 2.41862C8.87283 2.41862 7.79165 2.86589 6.99462 3.66292C6.19759 4.45995 5.75032 5.54112 5.75032 6.66829C5.75032 9.69533 5.10021 11.6962 4.40836 12.9647C4.31917 13.1282 4.22929 13.2791 4.14062 13.418H15.8594C15.7707 13.2791 15.6808 13.1282 15.5916 12.9647C14.8998 11.6962 14.2497 9.69533 14.2497 6.66829ZM2.08089 13.5465C2.08849 13.5409 2.10389 13.5286 2.12727 13.5091C2.17402 13.4702 2.25011 13.4022 2.34619 13.3008C2.53792 13.0984 2.81161 12.7602 3.09163 12.2469C3.61489 11.2876 4.17521 9.6901 4.24316 7.1818L4.24967 6.66829C4.24967 5.1433 4.85591 3.68087 5.93424 2.60254C7.01257 1.5242 8.475 0.917969 10 0.917969C11.525 0.917969 12.9874 1.5242 14.0658 2.60254C15.1441 3.68087 15.7503 5.1433 15.7503 6.66829C15.7503 9.47445 16.3502 11.2237 16.9084 12.2469C17.1884 12.7602 17.4621 13.0984 17.6538 13.3008C17.7499 13.4022 17.826 13.4702 17.8727 13.5091C17.8961 13.5286 17.9123 13.5409 17.9199 13.5465C18.1927 13.7304 18.3132 14.0705 18.2178 14.3856C18.122 14.7019 17.8305 14.9186 17.5 14.9186H2.5C2.1695 14.9186 1.878 14.7019 1.78222 14.3856C1.68684 14.0705 1.80815 13.7304 2.08089 13.5465Z" fill="#6E58FE"/>
</svg>
