<svg width="24" height="24" viewBox="0 0 24 24" fill="none" xmlns="http://www.w3.org/2000/svg">
<path d="M7.36655 2.6001C6.97507 2.60008 6.62854 2.60007 6.3414 2.62353C6.03562 2.64851 5.71876 2.70452 5.41031 2.86169C4.95872 3.09178 4.59157 3.45893 4.36147 3.91052C4.20431 4.21898 4.1483 4.53583 4.12331 4.84161C4.09985 5.12876 4.09987 5.47523 4.09988 5.86672L4.09989 21.5001C4.09989 21.8252 4.2752 22.125 4.55851 22.2844C4.84182 22.4439 5.18909 22.4381 5.46697 22.2694L11.9999 18.303L18.5328 22.2694C18.8107 22.4381 19.158 22.4439 19.4413 22.2844C19.7246 22.125 19.8999 21.8252 19.8999 21.5001L19.8999 5.86676C19.8999 5.4753 19.8999 5.12875 19.8765 4.84161C19.8515 4.53583 19.7955 4.21898 19.6383 3.91052C19.4082 3.45893 19.0411 3.09178 18.5895 2.86169C18.281 2.70452 17.9642 2.64851 17.6584 2.62353C17.3712 2.60007 17.0248 2.60008 16.6333 2.6001H7.36655Z" fill="#6E58FE"/>
</svg>

