<svg width="38" height="38" viewBox="0 0 38 38" fill="none" xmlns="http://www.w3.org/2000/svg">
<rect width="38" height="38" rx="19" fill="black" fill-opacity="0.2"/>
<path d="M14.7522 10.3834C14.3934 10.3834 14.0757 10.3834 13.8125 10.4049C13.5322 10.4278 13.2418 10.4791 12.959 10.6232C12.5451 10.8341 12.2085 11.1707 11.9976 11.5846C11.8535 11.8674 11.8022 12.1578 11.7793 12.4381C11.7578 12.7014 11.7578 13.019 11.7578 13.3778L11.7578 27.7084C11.7578 28.0064 11.9185 28.2813 12.1782 28.4274C12.4379 28.5735 12.7562 28.5683 13.011 28.4136L18.9995 24.7777L24.9879 28.4136C25.2427 28.5683 25.561 28.5735 25.8207 28.4274C26.0804 28.2813 26.2411 28.0064 26.2411 27.7084L26.2411 13.3779C26.2411 13.019 26.2411 12.7013 26.2196 12.4381C26.1967 12.1578 26.1454 11.8674 26.0013 11.5846C25.7904 11.1707 25.4538 10.8341 25.0399 10.6232C24.7571 10.4791 24.4667 10.4278 24.1864 10.4049C23.9232 10.3834 23.6056 10.3834 23.2467 10.3834H14.7522Z" fill="white"/>
</svg>

