<svg width="38" height="38" viewBox="0 0 38 38" fill="none" xmlns="http://www.w3.org/2000/svg">
<rect width="38" height="38" rx="19" fill="black" fill-opacity="0.2"/>
<path fill-rule="evenodd" clip-rule="evenodd" d="M14.7522 10.3834C14.7624 10.3834 14.7726 10.3834 14.7828 10.3834L23.2467 10.3834C23.6055 10.3834 23.9232 10.3834 24.1864 10.4049C24.4667 10.4278 24.7571 10.4791 25.0399 10.6232C25.4538 10.8341 25.7904 11.1707 26.0013 11.5846C26.1454 11.8674 26.1967 12.1578 26.2196 12.4381C26.2411 12.7014 26.2411 13.019 26.2411 13.3779L26.2411 27.7084C26.2411 28.0064 26.0804 28.2813 25.8207 28.4274C25.561 28.5735 25.2427 28.5683 24.9879 28.4136L18.9995 24.7777L13.011 28.4136C12.7562 28.5683 12.4379 28.5735 12.1782 28.4274C11.9185 28.2813 11.7578 28.0064 11.7578 27.7084V13.4084C11.7578 13.3982 11.7578 13.388 11.7578 13.3779C11.7578 13.019 11.7578 12.7014 11.7793 12.4381C11.8022 12.1578 11.8535 11.8674 11.9976 11.5846C12.2085 11.1707 12.5451 10.8341 12.959 10.6232C13.2418 10.4791 13.5322 10.4278 13.8125 10.4049C14.0758 10.3834 14.3934 10.3834 14.7522 10.3834ZM13.9469 12.0494C13.7686 12.064 13.7195 12.0876 13.7081 12.0934C13.6046 12.1461 13.5205 12.2302 13.4678 12.3337C13.462 12.3451 13.4384 12.3942 13.4238 12.5725C13.4084 12.7604 13.4078 13.0098 13.4078 13.4084V26.2424L18.5713 23.1074C18.8344 22.9477 19.1645 22.9477 19.4276 23.1074L24.5911 26.2424V13.4084C24.5911 13.0098 24.5905 12.7604 24.5751 12.5725C24.5605 12.3942 24.537 12.3451 24.5312 12.3337C24.4784 12.2302 24.3943 12.1461 24.2908 12.0934C24.2794 12.0876 24.2303 12.064 24.052 12.0494C23.8641 12.0341 23.6148 12.0334 23.2161 12.0334H14.7828C14.3842 12.0334 14.1348 12.0341 13.9469 12.0494Z" fill="white"/>
</svg>

