<svg width="24" height="24" viewBox="0 0 24 24" fill="none" xmlns="http://www.w3.org/2000/svg">
<path fill-rule="evenodd" clip-rule="evenodd" d="M7.36643 2.6001C7.37751 2.6001 7.38862 2.6001 7.39976 2.6001L16.6331 2.6001C17.0246 2.60008 17.3711 2.60006 17.6583 2.62353C17.964 2.64851 18.2809 2.70452 18.5893 2.86168C19.0409 3.09178 19.4081 3.45893 19.6382 3.91052C19.7953 4.21898 19.8514 4.53583 19.8763 4.84161C19.8998 5.12877 19.8998 5.47526 19.8998 5.86676L19.8998 21.5001C19.8998 21.8252 19.7245 22.125 19.4411 22.2844C19.1578 22.4439 18.8106 22.4381 18.5327 22.2694L11.9998 18.303L5.46684 22.2694C5.18896 22.4381 4.8417 22.4439 4.55839 22.2844C4.27508 22.125 4.09976 21.8252 4.09976 21.5001V5.9001C4.09976 5.88895 4.09976 5.87784 4.09976 5.86677C4.09974 5.47526 4.09973 5.12877 4.12319 4.84161C4.14817 4.53583 4.20418 4.21898 4.36135 3.91052C4.59144 3.45893 4.9586 3.09178 5.41019 2.86168C5.71864 2.70452 6.03549 2.64851 6.34128 2.62353C6.62843 2.60006 6.97492 2.60008 7.36643 2.6001ZM6.48786 4.41755C6.29338 4.43344 6.23978 4.45917 6.22737 4.4655C6.11447 4.52302 6.02268 4.61481 5.96516 4.72771C5.95884 4.74012 5.9331 4.79372 5.91721 4.98819C5.90046 5.19317 5.89976 5.46521 5.89976 5.9001V19.9008L11.5327 16.4808C11.8197 16.3065 12.1798 16.3065 12.4668 16.4808L18.0998 19.9008V5.9001C18.0998 5.46521 18.0991 5.19317 18.0823 4.98819C18.0664 4.79372 18.0407 4.74012 18.0344 4.72771C17.9768 4.61481 17.8851 4.52302 17.7722 4.4655C17.7597 4.45917 17.7061 4.43344 17.5117 4.41755C17.3067 4.4008 17.0347 4.4001 16.5998 4.4001H7.39976C6.96487 4.4001 6.69283 4.4008 6.48786 4.41755Z" fill="#D4D4D7"/>
</svg>

