<svg width="24" height="24" viewBox="0 0 24 24" fill="none" xmlns="http://www.w3.org/2000/svg">
<path fill-rule="evenodd" clip-rule="evenodd" d="M21.65 12.0001C21.65 6.67055 17.3295 2.3501 12 2.3501C6.67044 2.3501 2.34999 6.67055 2.34999 12.0001C2.34999 13.5384 2.71059 14.9948 3.35244 16.2873L2.8581 18.0998C2.74622 18.5099 2.64643 18.8758 2.59336 19.1763C2.53959 19.4809 2.50294 19.867 2.6502 20.2526C2.84311 20.7579 3.24221 21.157 3.74747 21.3499C4.13313 21.4971 4.51919 21.4605 4.82377 21.4067C5.12431 21.3537 5.49014 21.2539 5.90027 21.142L7.71283 20.6476C9.00524 21.2895 10.4616 21.6501 12 21.6501C17.3295 21.6501 21.65 17.3296 21.65 12.0001Z" fill="#6E58FE"/>
<path d="M16.0001 8.2998C16.3867 8.2998 16.7003 8.6134 16.7003 9C16.7003 9.3866 16.3867 9.7002 16.0001 9.7002H8.00007C7.61347 9.7002 7.29988 9.3866 7.29988 9C7.29988 8.6134 7.61347 8.2998 8.00007 8.2998H16.0001Z" fill="white"/>
<path d="M16.0001 11.2998C16.3867 11.2998 16.7003 11.6134 16.7003 12C16.7003 12.3866 16.3867 12.7002 16.0001 12.7002H8.00007C7.61347 12.7002 7.29988 12.3866 7.29988 12C7.29988 11.6134 7.61347 11.2998 8.00007 11.2998H16.0001Z" fill="white"/>
<path d="M16.0001 14.2998C16.3867 14.2998 16.7003 14.6134 16.7003 15C16.7003 15.3866 16.3867 15.7002 16.0001 15.7002H8.00007C7.61347 15.7002 7.29988 15.3866 7.29988 15C7.29988 14.6134 7.61347 14.2998 8.00007 14.2998H16.0001Z" fill="white"/>
</svg>
