<svg width="56" height="56" viewBox="0 0 56 56" fill="none" xmlns="http://www.w3.org/2000/svg">
<path d="M16 8.12049C16 6.94938 16.9494 6 18.1205 6H24.2169C25.388 6 26.3374 6.94938 26.3374 8.12049V10.7711H16V8.12049Z" fill="#FF9F9F"/>
<path d="M8.04785 11.8314C8.04785 10.6603 8.99723 9.71094 10.1683 9.71094H43.8311C45.0023 9.71094 45.9516 10.6603 45.9516 11.8314V47.8798C45.9516 49.0509 45.0023 50.0003 43.8311 50.0003H10.1683C8.99723 50.0003 8.04785 49.0509 8.04785 47.8798V11.8314Z" fill="url(#paint0_linear_2019_12299)"/>
<path d="M11.7588 8.12049C11.7588 6.94938 12.7082 6 13.8793 6H19.9757C21.1468 6 22.0962 6.94938 22.0962 8.12049V10.7711H11.7588V8.12049Z" fill="#FFEEEE"/>
<path d="M40.6505 17.9258H13.6143V19.2511H40.6505V17.9258Z" fill="#FFCFCF"/>
<path d="M40.6505 23.7578H13.6143V25.0831H40.6505V23.7578Z" fill="#FFCFCF"/>
<path d="M40.6505 29.3242H13.6143V30.6495H40.6505V29.3242Z" fill="#FFCFCF"/>
<defs>
<linearGradient id="paint0_linear_2019_12299" x1="26.9997" y1="9.71094" x2="26.9997" y2="50.0003" gradientUnits="userSpaceOnUse">
<stop stop-color="#FFEEEE"/>
<stop offset="1" stop-color="#FFDADA"/>
</linearGradient>
</defs>
</svg>
