<svg width="16" height="16" viewBox="0 0 24 24" fill="none" xmlns="http://www.w3.org/2000/svg">
<path d="M12.9999 2.09961L13.0497 2.10156C15.3552 2.22881 17.5332 3.20226 19.1659 4.83496C20.7983 6.4676 21.7711 8.64495 21.8983 10.9502C21.8992 10.9667 21.9003 10.9835 21.9003 11V11.498L21.8964 11.7715C21.8596 13.1375 21.5207 14.4792 20.9042 15.7012L20.9051 15.7021C20.1249 17.2634 18.9247 18.5771 17.4403 19.4951C15.9562 20.4128 14.2458 20.8986 12.5009 20.8994L12.5018 20.9004C11.1684 20.9038 9.85183 20.6186 8.6405 20.0684L3.28405 21.8535C2.96073 21.9612 2.60413 21.8777 2.36316 21.6367C2.12218 21.3957 2.0387 21.0391 2.14636 20.7158L3.93054 15.3584C3.38066 14.1474 3.09606 12.831 3.09948 11.498C3.10046 9.75343 3.58722 8.04343 4.50476 6.55957C5.42276 5.07514 6.7365 3.875 8.29773 3.09473C9.6007 2.43731 11.0404 2.09715 12.4999 2.10059V2.09961H12.9999ZM12.4979 3.90039C11.3198 3.89732 10.1569 4.17197 9.10534 4.70312L9.10241 4.70508C7.84016 5.33593 6.77822 6.30571 6.03601 7.50586C5.29386 8.70593 4.90088 10.089 4.90026 11.5V11.502C4.89719 12.6801 5.17184 13.8429 5.703 14.8945C5.81113 15.1087 5.82965 15.3574 5.75378 15.585L4.42175 19.5771L8.41491 18.2461C8.64251 18.1702 8.89119 18.1888 9.10534 18.2969C10.1569 18.828 11.3198 19.1027 12.4979 19.0996H12.4999C13.9109 19.099 15.2939 18.706 16.494 17.9639C17.6942 17.2217 18.6639 16.1597 19.2948 14.8975L19.2967 14.8945C19.8279 13.8429 20.1026 12.6801 20.0995 11.502V11.0244C19.991 9.17062 19.2059 7.42091 17.8925 6.10742C16.5787 4.79371 14.8286 4.00863 12.9745 3.90039H12.4979Z" fill="currentColor"/>
</svg>
