<svg width="24" height="24" viewBox="0 0 24 24" fill="none" xmlns="http://www.w3.org/2000/svg">
<path d="M13.0996 5C13.0996 4.44305 12.8792 3.90847 12.4854 3.51465C12.2244 3.25366 11.9008 3.07083 11.5508 2.97559L7.90039 11.1895V21.0996H18.29C18.5553 21.1026 18.8125 21.0097 19.0146 20.8379C19.2168 20.6661 19.3508 20.4273 19.3906 20.165L20.7705 11.1641C20.7942 11.0068 20.7836 10.8461 20.7393 10.6934C20.6948 10.5403 20.6173 10.3986 20.5127 10.2783C20.4081 10.158 20.2783 10.0614 20.1328 9.99609C19.9874 9.93089 19.8293 9.89859 19.6699 9.90039H14C13.5029 9.90039 13.0996 9.49706 13.0996 9V5ZM2.90039 20C2.90039 20.2917 3.01637 20.5711 3.22266 20.7773C3.42895 20.9836 3.70826 21.0996 4 21.0996H6.09961V11.9004H4C3.70826 11.9004 3.42895 12.0164 3.22266 12.2227C3.01637 12.4289 2.90039 12.7083 2.90039 13V20ZM14.9004 8.09961H19.6602C20.077 8.09638 20.4897 8.18377 20.8701 8.35449C21.2535 8.52661 21.5953 8.77955 21.8711 9.09668C22.1469 9.41391 22.3506 9.78768 22.4678 10.1914C22.5849 10.5949 22.6128 11.0191 22.5498 11.4346V11.4365L21.1699 20.4365C21.0648 21.1274 20.7132 21.7573 20.1807 22.21C19.6504 22.6606 18.9759 22.9048 18.2803 22.8994L4 22.9004C3.23087 22.9004 2.49307 22.5946 1.94922 22.0508C1.40536 21.5069 1.09961 20.7691 1.09961 20V13C1.09961 12.2309 1.40536 11.4931 1.94922 10.9492C2.49307 10.4054 3.23087 10.0996 4 10.0996H6.41602L10.1777 1.63477L10.2402 1.51855C10.4036 1.26069 10.6888 1.09961 11 1.09961C12.0343 1.09961 13.0264 1.5108 13.7578 2.24219C14.4892 2.97358 14.9004 3.96566 14.9004 5V8.09961Z" fill="#0B0B0B"/>
</svg>
